Coordinates
version=1
nRows=9
nColumns=63
inDegrees=yes

Units are S.I. units (second, meters, Newtons, ...)
If the header above contains a line with 'inDegrees', this indicates whether rotational values are in degrees (yes) or radians (no).

endheader
time	pelvis_tilt	pelvis_list	pelvis_rotation	pelvis_tx	pelvis_ty	pelvis_tz	hip_flexion_r	hip_adduction_r	hip_rotation_r	knee_angle_r	knee_angle_r_beta	ankle_angle_r	subtalar_angle_r	mtp_angle_r	hip_flexion_l	hip_adduction_l	hip_rotation_l	knee_angle_l	knee_angle_l_beta	ankle_angle_l	subtalar_angle_l	mtp_angle_l	L5_S1_Flex_Ext	L5_S1_Lat_Bending	L5_S1_axial_rotation	L4_L5_Flex_Ext	L4_L5_Lat_Bending	L4_L5_axial_rotation	L3_L4_Flex_Ext	L3_L4_Lat_Bending	L3_L4_axial_rotation	L2_L3_Flex_Ext	L2_L3_Lat_Bending	L2_L3_axial_rotation	L1_L2_Flex_Ext	L1_L2_Lat_Bending	L1_L2_axial_rotation	L1_T12_Flex_Ext	L1_T12_Lat_Bending	L1_T12_axial_rotation	Abs_r3	Abs_r2	Abs_r1	Abs_t1	Abs_t2	neck_flexion	neck_bending	neck_rotation	arm_flex_r	arm_add_r	arm_rot_r	elbow_flex_r	pro_sup_r	wrist_flex_r	wrist_dev_r	arm_flex_l	arm_add_l	arm_rot_l	elbow_flex_l	pro_sup_l	wrist_flex_l	wrist_dev_l
      0.00000000	     -3.01229269	    -10.95020493	    114.76428049	      0.16660840	      0.36742264	      0.61873378	     -8.93134239	     -2.69197750	     -4.25797246	      0.32500366	      0.00567238	     27.84165538	    -10.27486259	      0.00000000	     -6.71646688	      3.61824339	      7.17065020	      0.24088694	      0.00420427	     30.56377277	      5.78410632	      0.00000000	      0.21655312	     -0.24256602	     -1.12053345	      0.40216080	     -0.32261281	     -1.19056679	      0.35577512	     -0.58977503	     -1.19056679	      0.24749856	     -0.58977503	     -0.98046677	      0.20109123	     -0.49464063	     -0.91043343	      0.12373845	     -0.37573477	     -0.84040009	      1.54681729	     -2.74395535	     -6.23207090	      0.00000000	      0.00000000	     27.76911487	     -2.65100225	     -0.04555701	     16.88324235	      3.14564987	    100.98844192	     17.81755276	      5.51300794	      0.76073491	      8.26498853	     14.10951568	      1.45240597	     58.48263803	     24.71456430	     85.37670600	     -9.74179999	      4.44762230
      0.01694915	     -3.00946169	    -10.85710766	    114.95593611	      0.16652488	      0.36757160	      0.61785873	     -9.06542158	     -2.57391167	     -4.16423125	      0.34408942	      0.00600549	     27.91376427	    -10.62833961	      0.00000000	     -7.04032405	      3.51497560	      8.71415292	      0.24764596	      0.00432224	     29.54028965	      3.01448269	      0.00000000	      0.21063638	     -0.23369215	     -1.12027454	      0.39117283	     -0.31081056	     -1.19029170	      0.34605452	     -0.56819910	     -1.19029170	      0.24073632	     -0.56819910	     -0.98024022	      0.19559695	     -0.47654504	     -0.91022306	      0.12035763	     -0.36198915	     -0.84020590	      1.50455463	     -2.64357238	     -6.23063090	      0.00000000	      0.00000000	     27.78252122	     -2.85925777	      0.33364480	     17.40094496	      2.95016810	    104.75959291	     18.14767717	      4.95786328	      1.72640967	      8.15947603	     15.01296122	      1.59570458	     63.71349708	     23.65623494	     86.48685922	    -10.64633910	      3.78353690
      0.03389831	     -3.05220253	    -10.73993172	    115.07135345	      0.16632003	      0.36781802	      0.61748175	     -9.24040024	     -2.52869444	     -4.40246851	      0.36536334	      0.00637679	     28.03229430	    -10.29070427	      0.00000000	     -7.30179241	      3.50236871	     10.51511185	      0.25033698	      0.00436920	     28.78907478	      0.08651555	      0.00000000	      0.19811467	     -0.22401239	     -1.14650108	      0.36791876	     -0.29793648	     -1.21815740	      0.32548260	     -0.54466373	     -1.21815740	      0.22642526	     -0.54466373	     -1.00318845	      0.18396929	     -0.45680607	     -0.93153213	      0.11320273	     -0.34699520	     -0.85987581	      1.41511331	     -2.53407300	     -6.37649507	      0.00000000	      0.00000000	     27.77144963	     -2.93181905	      1.02802864	     17.59698111	      2.88819936	    106.62191179	     18.24690446	      4.88493414	      2.09615177	      7.82097127	     15.74121567	      1.73571977	     68.00911579	     22.78853652	     86.84688916	    -11.36622774	      3.15684597
      0.05084746	     -3.07570148	    -10.73925901	    115.07401759	      0.16637725	      0.36789795	      0.61775199	     -9.24052176	     -2.53628901	     -4.36728922	      0.40728026	      0.00710838	     28.04829230	    -10.26880963	      0.00000000	     -7.32569007	      3.53648631	     10.48638618	      0.25072041	      0.00437590	     28.82852943	      0.04983896	      0.00000000	      0.19286103	     -0.22358449	     -1.15921700	      0.35816223	     -0.29736737	     -1.23166806	      0.31685139	     -0.54362333	     -1.23166806	      0.22042088	     -0.54362333	     -1.01431488	      0.17909076	     -0.45593349	     -0.94186381	      0.11020080	     -0.34633238	     -0.86941275	      1.37758709	     -2.52923247	     -6.44721720	      0.00000000	      0.00000000	     27.76909751	     -2.93953985	      1.03708125	     17.55270030	      2.89135097	    106.62353074	     18.23949421	      4.88663601	      2.08328869	      7.80211218	     15.68861788	      1.70647155	     68.03678195	     22.76804606	     86.85415822	    -11.34895450	      3.16120259
      0.06779661	     -3.33554342	    -10.58158823	    115.11853968	      0.16584373	      0.36826504	      0.61778778	     -9.60763788	     -2.73117862	     -4.16731273	      0.40684039	      0.00710070	     28.11913880	    -10.08863612	      0.00000000	     -7.59991319	      3.77383141	     12.52086677	      0.24412072	      0.00426071	     28.51915809	     -2.73302815	      0.00000000	      0.16526275	     -0.22998822	     -1.23892276	      0.30690945	     -0.30588433	     -1.31635544	      0.27151017	     -0.55919336	     -1.31635544	      0.18887879	     -0.55919336	     -1.08405742	      0.15346299	     -0.46899198	     -1.00662475	      0.09443113	     -0.35625175	     -0.92919207	      1.18045527	     -2.60167275	     -6.89051673	      0.00000000	      0.00000000	     27.71261840	     -2.85570487	      2.14038767	     17.27307128	      3.07402878	    106.16423628	     17.95742585	      5.50515657	      1.50972484	      6.97201460	     16.38813060	      1.69976245	     71.99012897	     22.01932294	     86.88569959	    -11.83504855	      2.27135918
      0.08474576	     -3.53214193	    -10.60683010	    115.06237680	      0.16560474	      0.36836422	      0.61825638	     -9.71335890	     -2.96182750	     -4.70303625	      0.42649382	      0.00744372	     28.36653742	     -8.92805632	      0.00000000	     -7.59302424	      4.02700517	     11.54565814	      0.24519615	      0.00427948	     29.16119961	     -1.09851886	      0.00000000	      0.15777616	     -0.24502384	     -1.27529622	      0.29300611	     -0.32588170	     -1.35500224	      0.25921046	     -0.59575096	     -1.35500224	      0.18032238	     -0.59575096	     -1.11588420	      0.14651094	     -0.49965261	     -1.03617818	      0.09015330	     -0.37954192	     -0.95647217	      1.12697935	     -2.77175866	     -7.09281501	      0.00000000	      0.00000000	     27.68590332	     -2.78431721	      2.38027780	     16.86922553	      3.22802510	    104.41390736	     17.75147314	      6.16949748	      0.74735916	      6.61680732	     16.54416309	      1.57326146	     72.90050359	     21.87690644	     86.80046263	    -11.67066211	      1.89863584
      0.10169492	     -3.63358834	    -10.62371511	    114.81309012	      0.16548927	      0.36841648	      0.61898472	     -9.74086958	     -3.14161636	     -3.02468434	      0.44289810	      0.00773003	     27.78018848	    -10.66341404	      0.00000000	     -7.53293803	      4.23752211	     12.22365510	      0.23805597	      0.00415486	     29.41342830	     -2.00151028	      0.00000000	      0.14915120	     -0.24353315	     -1.25116567	      0.27698869	     -0.32389909	     -1.32936353	      0.24504050	     -0.59212649	     -1.32936353	      0.17046490	     -0.59212649	     -1.09476996	      0.13850180	     -0.49661279	     -1.01657211	      0.08522499	     -0.37723284	     -0.93837425	      1.06537209	     -2.75489566	     -6.95860811	      0.00000000	      0.00000000	     27.69048236	     -2.80950746	      2.72302739	     16.76720102	      3.41365160	    104.92988617	     17.26849105	      6.32012949	      0.70224778	      5.81749626	     17.70914617	      1.97653862	     79.27276326	     20.48416050	     86.65626441	    -12.51367336	      0.63973006
      0.11864407	     -3.01771250	    -10.71724405	    114.43544051	      0.16412083	      0.36862385	      0.62020775	     -9.31776456	     -2.83543934	     -2.18429637	      0.47432735	      0.00827857	     27.19614192	    -10.85662501	      0.00000000	     -7.09954782	      3.93692202	     11.72811850	      0.23510590	      0.00410337	     29.88216674	     -1.69713977	      0.00000000	      0.18935792	     -0.12342674	     -1.19665053	      0.35165660	     -0.16415756	     -1.27144119	      0.31109613	     -0.30009977	     -1.27144119	      0.21641717	     -0.30009977	     -1.04706921	      0.17583777	     -0.25169180	     -0.97227856	      0.10819912	     -0.19118802	     -0.89748790	      1.35256471	     -1.39622795	     -6.65541125	      0.00000000	      0.00000000	     27.72928472	     -3.44396581	      4.63968911	     16.66141218	      2.88187240	    104.73664542	     17.15421283	      6.66120257	      0.51444790	      5.78288818	     19.91232878	     10.23647509	    187.25471760	      0.33026687	     29.88690382	    -14.29184056	     -5.87271525
      0.13559322	     -2.86408704	    -11.05775040	    114.18608177	      0.16399272	      0.36792380	      0.62085871	     -8.53126893	     -2.96954659	     -2.87229429	      1.24057664	      0.02165215	     27.89330902	     -9.57256930	      0.00000000	     -6.43080650	      4.06743483	     11.15366612	      0.67901775	      0.01185110	     30.46328024	     -1.29723569	      0.00000000	      0.25151466	     -0.11254986	     -1.14609041	      0.46708787	     -0.14969131	     -1.21772106	      0.41321343	     -0.27365372	     -1.21772106	      0.28745610	     -0.27365372	     -1.00282911	      0.23355651	     -0.22951167	     -0.93119846	      0.14371547	     -0.17433973	     -0.85956781	      1.79654404	     -1.27318647	     -6.37421102	      0.00000000	      0.00000000	     26.86947112	     -3.42457306	      4.57839988	     16.68937845	      2.62011132	    104.52656568	     17.60288629	      8.92479004	      0.26805442	      5.75079518	     20.04921701	     10.49080733	    187.36772621	      0.96408857	     30.61421396	    -14.20518533	     -5.29935816
